<?xml version="1.0" standalone="no"?>
<!DOCTYPE svg PUBLIC "-//W3C//DTD SVG 20010904//EN"
 "http://www.w3.org/TR/2001/REC-SVG-20010904/DTD/svg10.dtd">
<svg version="1.0" xmlns="http://www.w3.org/2000/svg"
 width="1280.000000pt" height="1231.000000pt" viewBox="0 0 1280.000000 1231.000000"
 preserveAspectRatio="xMidYMid meet">
<g transform="translate(0.000000,1231.000000) scale(0.100000,-0.100000)"
fill="#000000" stroke="none">
<path d="M6190 12306 c-3 -2 -77 -12 -165 -21 -1161 -119 -2171 -691 -2854
-1615 -391 -529 -658 -1184 -745 -1830 -92 -682 -8 -1386 240 -2014 305 -769
812 -1399 1502 -1866 69 -47 126 -89 125 -95 0 -5 -20 -15 -44 -22 -759 -201
-1203 -363 -1714 -624 -660 -336 -1211 -752 -1629 -1229 -370 -422 -627 -878
-771 -1365 -95 -322 -157 -820 -126 -1018 6 -40 18 -178 26 -307 9 -129 18
-250 21 -267 l5 -33 6339 0 c3487 0 6340 1 6341 3 8 29 53 670 53 767 1 147
-23 380 -55 548 -221 1165 -1109 2207 -2474 2901 -492 251 -1076 466 -1628
601 -126 31 -140 37 -132 50 3 5 45 35 93 66 907 591 1549 1556 1746 2627 50
271 61 400 60 737 0 348 -14 497 -74 792 -251 1226 -1047 2253 -2170 2803
-432 211 -855 332 -1370 391 -138 16 -589 31 -600 20z"/>
</g>
</svg>
