<svg xmlns="http://www.w3.org/2000/svg" viewBox="0 0 159.09 250"><defs><style>.cls-1{fill:#4a565b;}.cls-2{fill:#4ce577;}.cls-3{fill:#99e24d;}.cls-4{fill:#4d98e2;}.cls-5{fill:#795ce5;}</style></defs><g id="Layer_2" data-name="Layer 2"><g id="Layer_1-2" data-name="Layer 1"><polygon class="cls-1" points="11.36 181.82 55.68 175 159.09 204.54 79.55 216.78 11.36 181.82"/><polygon class="cls-1" points="22.73 45.45 79.55 31.25 113.64 68.18 92.66 73.43 22.73 45.45"/><polygon class="cls-1" points="0 113.64 56.15 104.28 136.36 136.36 100.48 142.34 0 113.64"/><polygon class="cls-2" points="22.73 45.45 136.36 90.91 136.36 136.36 22.73 90.91 22.73 45.45"/><polygon class="cls-3" points="79.55 0 113.64 22.73 113.64 68.18 79.55 45.45 79.55 0"/><polygon class="cls-4" points="0 113.64 159.09 159.09 159.09 204.54 0 159.09 0 113.64"/><polygon class="cls-5" points="11.36 181.82 79.55 204.54 79.55 250 11.36 227.27 11.36 181.82"/></g></g></svg>