<svg xmlns="http://www.w3.org/2000/svg" width="375" viewBox="0 0 375 375" height="375" version="1.0"><defs><clipPath id="a"><path d="M 62 45 L 328 45 L 328 330 L 62 330 Z M 62 45"/></clipPath><clipPath id="b"><path d="M -78.152344 79.878906 L 279.324219 -56.613281 L 415.816406 300.859375 L 58.339844 437.351562 Z M -78.152344 79.878906"/></clipPath><clipPath id="c"><path d="M -78.152344 79.878906 L 279.324219 -56.613281 L 415.816406 300.859375 L 58.339844 437.351562 Z M -78.152344 79.878906"/></clipPath><clipPath id="d"><path d="M 70 202 L 190 202 L 190 322 L 70 322 Z M 70 202"/></clipPath><clipPath id="e"><path d="M -78.152344 79.878906 L 279.324219 -56.613281 L 415.816406 300.859375 L 58.339844 437.351562 Z M -78.152344 79.878906"/></clipPath><clipPath id="f"><path d="M -78.152344 79.878906 L 279.324219 -56.613281 L 415.816406 300.859375 L 58.339844 437.351562 Z M -78.152344 79.878906"/></clipPath><clipPath id="g"><path d="M 124 73 L 151 73 L 151 250 L 124 250 Z M 124 73"/></clipPath><clipPath id="h"><path d="M -78.152344 79.878906 L 279.324219 -56.613281 L 415.816406 300.859375 L 58.339844 437.351562 Z M -78.152344 79.878906"/></clipPath><clipPath id="i"><path d="M -78.152344 79.878906 L 279.324219 -56.613281 L 415.816406 300.859375 L 58.339844 437.351562 Z M -78.152344 79.878906"/></clipPath><clipPath id="j"><path d="M 103 248 L 281 248 L 281 267 L 103 267 Z M 103 248"/></clipPath><clipPath id="k"><path d="M -78.152344 79.878906 L 279.324219 -56.613281 L 415.816406 300.859375 L 58.339844 437.351562 Z M -78.152344 79.878906"/></clipPath><clipPath id="l"><path d="M -78.152344 79.878906 L 279.324219 -56.613281 L 415.816406 300.859375 L 58.339844 437.351562 Z M -78.152344 79.878906"/></clipPath><clipPath id="m"><path d="M 100 53 L 188 53 L 188 141 L 100 141 Z M 100 53"/></clipPath><clipPath id="n"><path d="M -78.152344 79.878906 L 279.324219 -56.613281 L 415.816406 300.859375 L 58.339844 437.351562 Z M -78.152344 79.878906"/></clipPath><clipPath id="o"><path d="M -78.152344 79.878906 L 279.324219 -56.613281 L 415.816406 300.859375 L 58.339844 437.351562 Z M -78.152344 79.878906"/></clipPath><clipPath id="p"><path d="M 232 209 L 320 209 L 320 296 L 232 296 Z M 232 209"/></clipPath><clipPath id="q"><path d="M -78.152344 79.878906 L 279.324219 -56.613281 L 415.816406 300.859375 L 58.339844 437.351562 Z M -78.152344 79.878906"/></clipPath><clipPath id="r"><path d="M -78.152344 79.878906 L 279.324219 -56.613281 L 415.816406 300.859375 L 58.339844 437.351562 Z M -78.152344 79.878906"/></clipPath></defs><path fill="#FFF" d="M-37.5 -37.5H412.5V412.5H-37.5z"/><path fill="#FFF" d="M-37.5 -37.5H412.5V412.5H-37.5z"/><path fill="#2C2C2C" d="M-37.5 -37.5H412.5V412.5H-37.5z"/><g clip-path="url(#a)"><g clip-path="url(#b)"><g clip-path="url(#c)"><path fill="#6CE200" d="M 317.886719 222.300781 C 304.289062 203.390625 279.621094 195.972656 257.886719 204.269531 C 253.761719 205.847656 249.832031 207.972656 246.210938 210.570312 C 235.070312 218.578125 227.710938 230.445312 225.496094 243.988281 C 225.320312 245.046875 225.191406 246.097656 225.085938 247.15625 L 196.1875 248.847656 C 194.3125 239.566406 190.492188 230.699219 184.789062 222.78125 C 174.285156 208.160156 158.738281 198.769531 141.898438 195.722656 L 147.167969 148.136719 C 152.328125 147.851562 157.515625 146.777344 162.542969 144.859375 C 166.667969 143.28125 170.601562 141.164062 174.21875 138.558594 C 185.363281 130.558594 192.71875 118.691406 194.929688 105.152344 C 197.148438 91.609375 193.953125 78.023438 185.953125 66.882812 C 172.355469 47.976562 147.6875 40.558594 125.945312 48.863281 C 121.816406 50.4375 117.886719 52.558594 114.265625 55.160156 C 91.273438 71.6875 86.019531 103.839844 102.539062 126.847656 C 109.667969 136.765625 119.847656 143.511719 131.046875 146.488281 L 125.707031 194.765625 C 119.03125 195.1875 112.332031 196.589844 105.839844 199.066406 C 100.410156 201.140625 95.238281 203.925781 90.480469 207.351562 C 75.824219 217.886719 66.144531 233.507812 63.230469 251.316406 C 60.316406 269.140625 64.511719 287.015625 75.050781 301.671875 C 92.9375 326.554688 125.398438 336.316406 153.996094 325.394531 C 159.4375 323.316406 164.605469 320.527344 169.375 317.105469 C 184.023438 306.570312 193.703125 290.957031 196.621094 273.140625 C 197.066406 270.417969 197.320312 267.710938 197.433594 265 L 226.011719 263.324219 C 227.492188 270.0625 230.335938 276.488281 234.480469 282.257812 C 248.070312 301.167969 272.746094 308.574219 294.476562 300.277344 C 298.605469 298.703125 302.539062 296.585938 306.15625 293.980469 C 317.300781 285.976562 324.652344 274.105469 326.867188 260.574219 C 329.082031 247.03125 325.890625 233.445312 317.886719 222.300781"/></g></g></g><g clip-path="url(#d)"><g clip-path="url(#e)"><g clip-path="url(#f)"><path fill="#6CE200" d="M 178.21875 227.515625 C 197.394531 254.175781 191.3125 291.351562 164.636719 310.523438 C 137.96875 329.703125 100.796875 323.617188 81.628906 296.945312 C 62.445312 270.273438 68.535156 233.105469 95.207031 213.925781 C 121.878906 194.753906 159.046875 200.839844 178.21875 227.515625"/></g></g></g><g clip-path="url(#g)"><g clip-path="url(#h)"><g clip-path="url(#i)"><path fill="#6CE200" d="M 132.277344 245.796875 L 150.820312 78.359375 C 151.058594 76.132812 149.457031 74.132812 147.242188 73.882812 C 145.011719 73.636719 143.011719 75.242188 142.761719 77.464844 L 124.226562 244.902344 C 123.984375 247.121094 125.578125 249.125 127.804688 249.375 C 130.035156 249.617188 132.035156 248.019531 132.273438 245.796875"/></g></g></g><g clip-path="url(#j)"><g clip-path="url(#k)"><g clip-path="url(#l)"><path fill="#6CE200" d="M 108.246094 266.167969 L 276.417969 256.3125 C 278.652344 256.179688 280.359375 254.269531 280.21875 252.039062 C 280.089844 249.804688 278.175781 248.097656 275.945312 248.226562 L 107.769531 258.082031 C 105.535156 258.214844 103.828125 260.128906 103.960938 262.359375 C 104.089844 264.59375 106.011719 266.296875 108.246094 266.167969"/></g></g></g><g clip-path="url(#m)"><g clip-path="url(#n)"><g clip-path="url(#o)"><path fill="#6CE200" d="M 179.375 71.609375 C 193.316406 91.011719 188.898438 118.042969 169.492188 131.984375 C 150.09375 145.933594 123.0625 141.515625 109.113281 122.113281 C 95.175781 102.714844 99.589844 75.683594 118.992188 61.738281 C 138.398438 47.789062 165.425781 52.210938 179.375 71.609375"/></g></g></g><g clip-path="url(#p)"><g clip-path="url(#q)"><g clip-path="url(#r)"><path fill="#6CE200" d="M 311.3125 227.027344 C 325.261719 246.429688 320.835938 273.460938 301.429688 287.402344 C 282.027344 301.351562 255.003906 296.921875 241.058594 277.53125 C 227.109375 258.128906 231.535156 231.09375 250.9375 217.144531 C 270.335938 203.195312 297.363281 207.625 311.3125 227.027344"/></g></g></g></svg>